<svg width="1920" height="1080" viewBox="0 0 1920 1080" fill="none" xmlns="http://www.w3.org/2000/svg">
<rect width="1920" height="1080" fill="#CFCFCF"/>
<path d="M1189.6 395.944C1179.76 386.638 1166.17 381.139 1150.7 381.139H1072.91V380.293C1072.91 369.718 1068.22 359.566 1060.26 352.798C1052.29 345.606 1041.51 341.376 1029.79 341.376H889.205C877.021 341.376 866.242 345.606 858.276 352.798C850.309 359.989 845.623 369.718 845.623 380.293V381.139H768.298C752.834 381.139 739.243 386.638 729.402 395.944C719.561 404.827 713 417.517 713 431.053V641.709C713 655.668 719.092 667.935 729.402 676.818C739.243 685.702 753.302 691.624 768.298 691.624H1150.7C1166.17 691.624 1179.76 686.125 1189.6 676.818C1199.44 667.935 1206 655.245 1206 641.709V431.053C1206 417.094 1199.91 404.827 1189.6 395.944ZM1181.63 641.709H1181.16C1181.16 649.323 1177.88 656.091 1172.26 661.167C1166.63 666.243 1159.14 669.204 1150.7 669.204H768.298C759.863 669.204 752.365 666.243 746.741 661.167C741.118 656.091 737.837 649.323 737.837 641.709V431.053C737.837 423.439 741.118 416.671 746.741 411.595C752.365 406.519 759.863 403.558 768.298 403.558H858.744C865.774 403.558 871.397 398.482 871.397 392.137V379.87C871.397 375.217 873.272 370.987 876.552 368.026C879.833 365.065 884.519 363.373 889.674 363.373H1029.79C1034.95 363.373 1039.64 365.065 1042.92 368.026C1046.2 370.987 1048.07 375.217 1048.07 379.87V392.137C1048.07 398.482 1053.69 403.558 1060.72 403.558H1151.17C1159.61 403.558 1167.1 406.519 1172.73 411.595C1178.35 416.671 1181.63 423.439 1181.63 431.053V641.709Z" fill="black" fill-opacity="0.3"/>
<path d="M959.5 432.322C927.633 432.322 898.578 444.166 877.958 462.779C856.87 481.814 844.217 507.617 844.217 536.381C844.217 565.145 857.338 591.372 877.958 609.984C899.047 629.019 927.633 640.44 959.5 640.44C991.367 640.44 1020.42 628.596 1041.04 609.984C1062.13 590.949 1074.78 565.145 1074.78 536.381C1074.78 507.617 1061.66 481.391 1041.04 462.779C1020.42 444.166 991.367 432.322 959.5 432.322ZM1023.23 594.333C1006.83 608.715 984.337 618.021 959.5 618.021C934.663 618.021 912.168 608.715 895.766 594.333C879.364 579.528 869.523 559.223 869.523 536.804C869.523 514.385 879.833 494.081 895.766 479.276C912.168 464.471 934.663 455.587 959.5 455.587C984.337 455.587 1006.83 464.894 1023.23 479.276C1039.64 494.081 1049.48 514.385 1049.48 536.804C1049.95 559.223 1039.64 579.528 1023.23 594.333Z" fill="black" fill-opacity="0.3"/>
<path d="M1126.33 473.354C1139.01 473.354 1149.3 464.074 1149.3 452.626C1149.3 441.179 1139.01 431.899 1126.33 431.899C1113.65 431.899 1103.37 441.179 1103.37 452.626C1103.37 464.074 1113.65 473.354 1126.33 473.354Z" fill="black" fill-opacity="0.3"/>
<path opacity="0.3" d="M445.125 946H417.984V851.359H314.766V946H287.766V741.25H314.766V829.281H417.984V741.25H445.125V946ZM608.812 851.359H520.078V923.922H623.156V946H493.078V741.25H621.75V763.469H520.078V829.281H608.812V851.359ZM801.047 763.469H735.234V946H708.375V763.469H642.703V741.25H801.047V763.469ZM998.344 761.781H1002.7C1018.17 761.875 1032.28 765.484 1045.03 772.609C1057.78 779.734 1067.67 789.578 1074.7 802.141C1081.83 814.609 1085.39 828.578 1085.39 844.047C1085.39 859.609 1081.83 873.719 1074.7 886.375C1067.58 899.031 1057.73 908.922 1045.17 916.047C1032.61 923.078 1018.64 926.688 1003.27 926.875H998.344V954.438H972.188V926.875H968.25C952.594 926.875 938.344 923.312 925.5 916.188C912.75 909.062 902.812 899.219 895.688 886.656C888.656 874.094 885.141 859.984 885.141 844.328C885.141 828.672 888.656 814.562 895.688 802C902.812 789.438 912.75 779.594 925.5 772.469C938.344 765.344 952.594 761.781 968.25 761.781H972.188V732.812H998.344V761.781ZM968.25 783.016C950.625 783.016 936.656 788.453 926.344 799.328C916.125 810.109 911.016 825.109 911.016 844.328C911.016 863.641 916.125 878.688 926.344 889.469C936.562 900.156 950.625 905.5 968.531 905.5H972.188V783.016H968.25ZM998.344 783.016V905.5H1002.28C1020.19 905.5 1034.16 900.016 1044.19 889.047C1054.31 877.984 1059.38 862.984 1059.38 844.047C1059.38 825.297 1054.31 810.438 1044.19 799.469C1034.16 788.5 1020 783.016 1001.72 783.016H998.344ZM1276.92 850.234C1276.92 870.297 1273.55 887.828 1266.8 902.828C1260.05 917.734 1250.48 929.125 1238.11 937C1225.73 944.875 1211.3 948.812 1194.8 948.812C1178.67 948.812 1164.38 944.875 1151.91 937C1139.44 929.031 1129.73 917.734 1122.8 903.109C1115.95 888.391 1112.44 871.375 1112.25 852.062V837.297C1112.25 817.609 1115.67 800.219 1122.52 785.125C1129.36 770.031 1139.02 758.5 1151.48 750.531C1164.05 742.469 1178.39 738.438 1194.52 738.438C1210.92 738.438 1225.36 742.422 1237.83 750.391C1250.39 758.266 1260.05 769.75 1266.8 784.844C1273.55 799.844 1276.92 817.328 1276.92 837.297V850.234ZM1250.06 837.016C1250.06 812.734 1245.19 794.125 1235.44 781.188C1225.69 768.156 1212.05 761.641 1194.52 761.641C1177.45 761.641 1164 768.156 1154.16 781.188C1144.41 794.125 1139.39 812.125 1139.11 835.188V850.234C1139.11 873.766 1144.03 892.281 1153.88 905.781C1163.81 919.188 1177.45 925.891 1194.8 925.891C1212.23 925.891 1225.73 919.562 1235.3 906.906C1244.86 894.156 1249.78 875.922 1250.06 852.203V837.016ZM1454.95 763.469H1389.14V946H1362.28V763.469H1296.61V741.25H1454.95V763.469ZM1638.89 850.234C1638.89 870.297 1635.52 887.828 1628.77 902.828C1622.02 917.734 1612.45 929.125 1600.08 937C1587.7 944.875 1573.27 948.812 1556.77 948.812C1540.64 948.812 1526.34 944.875 1513.88 937C1501.41 929.031 1491.7 917.734 1484.77 903.109C1477.92 888.391 1474.41 871.375 1474.22 852.062V837.297C1474.22 817.609 1477.64 800.219 1484.48 785.125C1491.33 770.031 1500.98 758.5 1513.45 750.531C1526.02 742.469 1540.36 738.438 1556.48 738.438C1572.89 738.438 1587.33 742.422 1599.8 750.391C1612.36 758.266 1622.02 769.75 1628.77 784.844C1635.52 799.844 1638.89 817.328 1638.89 837.297V850.234ZM1612.03 837.016C1612.03 812.734 1607.16 794.125 1597.41 781.188C1587.66 768.156 1574.02 761.641 1556.48 761.641C1539.42 761.641 1525.97 768.156 1516.12 781.188C1506.38 794.125 1501.36 812.125 1501.08 835.188V850.234C1501.08 873.766 1506 892.281 1515.84 905.781C1525.78 919.188 1539.42 925.891 1556.77 925.891C1574.2 925.891 1587.7 919.562 1597.27 906.906C1606.83 894.156 1611.75 875.922 1612.03 852.203V837.016Z" fill="black"/>
</svg>
